<svg width="138" height="138" viewBox="0 0 138 138" fill="none" xmlns="http://www.w3.org/2000/svg">
<circle cx="69.0643" cy="69.0541" r="68.9153" fill="#EBF0FF" fill-opacity="0.5"/>
<path d="M60.0048 41.3083C62.5533 41.3083 64.6183 43.3733 64.6183 45.9218V45.931L69.2319 36.6947C71.7804 36.6947 73.8454 38.7597 73.8454 41.3083V43.6796L78.459 40.8469C81.0075 40.8469 83.0725 42.9119 83.0725 45.4605V51.984L84.9179 69.0542H59.9272L60.0048 41.3083Z" fill="#F7B916"/>
<path d="M39.936 65.7674C42.4845 64.6399 46.1256 66.1513 48.7018 69.8052C50.394 72.2043 50.8923 75.6201 53.1142 75.9763C53.9631 76.111 55.3914 75.3987 55.3914 73.3982V44.1409C55.3914 44.1409 55.3914 40.4501 59.0823 40.4501C62.7731 40.4501 62.7731 44.1409 62.7731 44.1409V65.6087C62.7731 65.5552 64.6185 65.4906 64.6185 65.4574V39.5274C64.6185 39.5274 64.6185 35.8365 68.3094 35.8365C72.0002 35.8365 72.0002 39.5274 72.0002 39.5274V65.4611C72.0002 65.4925 73.8456 65.5367 73.8456 65.5884V43.6796C73.8456 43.6796 73.8456 39.9887 77.5365 39.9887C81.2273 39.9887 81.2273 43.6796 81.2273 43.6796V67.002C81.2273 67.2198 83.0727 67.4652 83.0727 67.7365V51.984C83.0727 51.984 83.0727 48.2931 86.7636 48.2931C90.4544 48.2931 90.4544 51.984 90.4544 51.984V80.1266C90.4544 92.3562 80.539 102.272 68.3094 102.272C59.4975 102.272 53.4353 97.4773 50.0471 92.5057C47.1738 88.2889 46.3415 83.9116 46.1643 82.5884C46.1643 82.5884 45.9373 79.8591 44.031 77.3013C41.3201 73.6677 39.4175 71.4772 38.2641 70.1669C37.6791 69.5044 37.1107 67.0168 39.936 65.7674Z" fill="#FFE735"/>
</svg>
