<svg width="139" height="139" viewBox="0 0 139 139" fill="none" xmlns="http://www.w3.org/2000/svg">
<circle cx="69.5003" cy="69.4492" r="68.9153" fill="#EBF0FF" fill-opacity="0.5"/>
<rect x="53.4453" y="22.4843" width="32.11" height="32.11" rx="16.055" fill="white" stroke="#00ADEE" stroke-width="2"/>
<path d="M62.8677 37.5918L68.7896 42.3293L75.1852 34.7493" stroke="#00ADEE" stroke-width="2" stroke-linecap="round" stroke-linejoin="round"/>
<path d="M98.3807 94.3279H46.1801C43.5843 94.3279 41.4726 92.2137 41.4726 89.6203C41.4726 87.0269 43.6223 84.8369 46.2181 84.8369L46.2347 84.8345L46.2537 84.8369H93.6731C94.8334 84.8369 95.8228 83.9969 96.0127 82.8532L100.758 54.3802C100.874 53.6921 100.68 52.9898 100.227 52.4559C99.7782 51.9244 99.1162 51.6183 98.4186 51.6183H43.4111L40.9434 36.9879C40.756 35.8656 39.795 35.1087 38.7083 35.0565C38.6703 35.0494 38.6442 35.009 38.6063 35.009H27.236C25.9263 35.009 24.8633 36.072 24.8633 37.3818C24.8633 38.6915 25.9263 39.7545 27.236 39.7545H36.5989L43.487 80.6039C39.591 81.7736 36.727 85.3494 36.727 89.6203C36.727 94.8333 40.9695 99.0734 46.1801 99.0734H98.3807C99.6928 99.0734 100.753 98.0128 100.753 96.7006C100.753 95.3885 99.6928 94.3279 98.3807 94.3279ZM93.246 70.6003H85.3993L86.0471 65.8548H94.0338L93.246 70.6003ZM80.6087 70.6003H72.3183V65.8548H81.2565L80.6087 70.6003ZM67.5728 70.6003H59.2824L58.6347 65.8548H67.5728V70.6003ZM54.4942 70.6003H46.6475L45.8574 65.8548H53.8465L54.4942 70.6003ZM48.2278 80.0913L47.4377 75.3458H55.142L55.7897 80.0913H48.2278ZM60.5803 80.0913L59.9326 75.3458H67.5728V80.0913H60.5803ZM72.3183 80.0913V75.3458H79.9586L79.3108 80.0913H72.3183ZM84.1038 80.0913L84.7516 75.3458H92.4559L91.6658 80.0913H84.1038ZM95.6164 56.3638L94.8263 61.1093H86.6972L87.345 56.3638H95.6164ZM82.5544 56.3638L81.9066 61.1093H72.3183V56.3638H82.5544ZM67.5728 56.3638V61.1093H57.9845L57.3368 56.3638H67.5728ZM52.5462 56.3638L53.194 61.1093H45.0625L44.2724 56.3638H52.5462Z" fill="#1062AA"/>
<path d="M53.3365 110.937C57.2678 110.937 60.4548 107.75 60.4548 103.819C60.4548 99.8876 57.2678 96.7007 53.3365 96.7007C49.4052 96.7007 46.2183 99.8876 46.2183 103.819C46.2183 107.75 49.4052 110.937 53.3365 110.937Z" fill="white"/>
<path d="M53.3362 113.31C48.1019 113.31 43.8452 109.053 43.8452 103.819C43.8452 98.5846 48.1019 94.3279 53.3362 94.3279C58.5705 94.3279 62.8272 98.5846 62.8272 103.819C62.8272 109.053 58.5705 113.31 53.3362 113.31ZM53.3362 99.0734C50.7191 99.0734 48.5907 101.202 48.5907 103.819C48.5907 106.436 50.7191 108.564 53.3362 108.564C55.9534 108.564 58.0817 106.436 58.0817 103.819C58.0817 101.202 55.9534 99.0734 53.3362 99.0734Z" fill="#333333"/>
<path d="M86.5548 110.937C90.4861 110.937 93.673 107.75 93.673 103.819C93.673 99.8876 90.4861 96.7007 86.5548 96.7007C82.6235 96.7007 79.4365 99.8876 79.4365 103.819C79.4365 107.75 82.6235 110.937 86.5548 110.937Z" fill="white"/>
<path d="M86.555 113.31C81.3207 113.31 77.064 109.053 77.064 103.819C77.064 98.5846 81.3207 94.3279 86.555 94.3279C91.7893 94.3279 96.046 98.5846 96.046 103.819C96.046 109.053 91.7893 113.31 86.555 113.31ZM86.555 99.0734C83.9378 99.0734 81.8095 101.202 81.8095 103.819C81.8095 106.436 83.9378 108.564 86.555 108.564C89.1721 108.564 91.3005 106.436 91.3005 103.819C91.3005 101.202 89.1721 99.0734 86.555 99.0734Z" fill="#333333"/>
</svg>
