<svg width="191" height="140" viewBox="0 0 191 140" fill="none" xmlns="http://www.w3.org/2000/svg">
<path d="M7.93164 43.9501V56.8141" stroke="#00ADEE" stroke-width="2" stroke-miterlimit="10" stroke-linecap="round" stroke-linejoin="round"/>
<path d="M14.3636 50.3821H1.49965" stroke="#00ADEE" stroke-width="2" stroke-miterlimit="10" stroke-linecap="round" stroke-linejoin="round"/>
<path d="M42.3972 112.214C44.1742 113.402 44.1742 116.014 42.3972 117.202L36.5452 121.114C34.5518 122.447 31.8779 121.018 31.8779 118.62L31.8779 110.796C31.8779 108.398 34.5518 106.969 36.5452 108.302L42.3972 112.214Z" stroke="#F7B916" stroke-width="2" stroke-linecap="round" stroke-linejoin="round"/>
<circle cx="143.113" cy="114.922" r="11.2144" fill="#F7B916"/>
<path d="M148.04 117.664C148.04 118.627 147.674 119.444 146.943 120.114C146.224 120.785 145.175 121.175 143.798 121.285V123.351H142.627V121.285C141.737 121.236 140.89 121.071 140.085 120.791C139.293 120.498 138.659 120.133 138.184 119.694L138.86 118.267C139.299 118.67 139.854 119.005 140.524 119.273C141.195 119.529 141.896 119.681 142.627 119.73V115.488C141.774 115.28 141.061 115.055 140.488 114.811C139.927 114.567 139.451 114.208 139.061 113.732C138.683 113.257 138.494 112.635 138.494 111.867C138.494 110.904 138.842 110.087 139.537 109.417C140.244 108.746 141.274 108.356 142.627 108.246V106.161H143.798V108.228C144.493 108.252 145.163 108.362 145.809 108.557C146.467 108.752 147.034 109.014 147.51 109.343L146.906 110.806C145.919 110.185 144.883 109.843 143.798 109.782V114.043C144.688 114.263 145.419 114.494 145.992 114.738C146.565 114.97 147.047 115.323 147.437 115.799C147.839 116.262 148.04 116.884 148.04 117.664ZM140.287 111.794C140.287 112.318 140.488 112.726 140.89 113.019C141.292 113.312 141.871 113.555 142.627 113.75V109.801C141.847 109.898 141.262 110.13 140.872 110.495C140.482 110.849 140.287 111.282 140.287 111.794ZM143.798 119.712C144.614 119.639 145.224 119.432 145.626 119.09C146.041 118.737 146.248 118.298 146.248 117.774C146.248 117.237 146.035 116.829 145.608 116.548C145.194 116.256 144.59 116 143.798 115.78V119.712Z" fill="white"/>
<circle cx="184.873" cy="80.2827" r="4.5" stroke="#1062AA" stroke-width="2"/>
<path d="M141.43 54.43C145.753 50.1066 152.763 50.1066 157.086 54.4299C161.409 58.7533 161.409 65.7629 157.086 70.0862L95.5872 131.585C91.2639 135.908 84.2543 135.908 79.931 131.585C75.6076 127.262 75.6076 120.252 79.931 115.929L141.43 54.43Z" fill="#FFE735"/>
<path d="M96.4111 8.5718C100.734 4.24843 107.744 4.24843 112.067 8.57179C116.391 12.8952 116.391 19.9047 112.067 24.2281L50.5687 85.7268C46.2453 90.0501 39.2358 90.0501 34.9124 85.7268C30.589 81.4034 30.589 74.3939 34.9124 70.0705L96.4111 8.5718Z" fill="#FFE735"/>
<path d="M98.2266 29.1021C102.55 24.7787 109.559 24.7787 113.883 29.1021C118.206 33.4254 118.206 40.435 113.883 44.7583L69.1012 89.54C64.7778 93.8633 57.7683 93.8633 53.4449 89.54C49.1216 85.2166 49.1216 78.207 53.4449 73.8837L98.2266 29.1021Z" fill="#FFE735"/>
<path d="M121.631 50.8389C125.954 46.5155 132.964 46.5155 137.287 50.8389C141.61 55.1622 141.61 62.1718 137.287 66.4952L92.0341 111.748C87.7108 116.072 80.7012 116.072 76.3778 111.748C72.0545 107.425 72.0545 100.415 76.3778 96.0919L121.631 50.8389Z" fill="#FFE735"/>
<path d="M119.228 31.221C123.552 26.8976 130.561 26.8976 134.885 31.221C139.208 35.5443 139.208 42.5539 134.885 46.8772L73.3861 108.376C69.0627 112.699 62.0532 112.699 57.7298 108.376C53.4064 104.053 53.4064 97.043 57.7298 92.7197L119.228 31.221Z" fill="#FFE735"/>
<circle cx="54.0455" cy="89.3344" r="5.01717" fill="white"/>
<circle cx="77.5182" cy="111.14" r="5.07581" fill="white"/>
<circle cx="113.502" cy="29.8718" r="5.00679" fill="white"/>
<circle cx="137.004" cy="51.7079" r="5.10605" fill="white"/>
<circle cx="167.535" cy="24.8651" r="11.838" fill="#00ADEE"/>
<path d="M171.97 30.3018H163.117C163.018 30.3018 162.195 30.2594 161.727 29.6082C161.231 28.9146 161.444 28.136 161.642 27.5981C162.564 25.1351 164.933 23.493 167.572 23.493C170.182 23.493 172.48 25.0501 173.445 27.4707C173.743 28.221 173.714 29.0845 173.36 29.5941C172.877 30.2877 172.055 30.3018 171.97 30.3018ZM167.572 24.5122C165.373 24.5122 163.373 25.8995 162.607 27.952C162.366 28.589 162.451 28.8438 162.564 29.0137C162.734 29.2543 163.132 29.2826 163.132 29.2826H171.955C171.955 29.2826 172.324 29.2685 172.494 29.0137C172.608 28.8438 172.679 28.3625 172.48 27.8388C171.686 25.8287 169.757 24.5122 167.572 24.5122Z" fill="white" stroke="white" stroke-width="0.5"/>
<path d="M167.572 24.5122C165.629 24.5122 164.04 22.9409 164.04 20.9875C164.04 19.034 165.629 17.4769 167.572 17.4769C169.516 17.4769 171.105 19.0482 171.105 21.0016C171.105 22.9551 169.516 24.5122 167.572 24.5122ZM167.572 18.4961C166.196 18.4961 165.076 19.6144 165.076 20.9875C165.076 22.3606 166.196 23.4788 167.572 23.4788C168.948 23.4788 170.069 22.3606 170.069 20.9875C170.069 19.6144 168.948 18.4961 167.572 18.4961Z" fill="white" stroke="white" stroke-width="0.5"/>
<circle cx="97.6712" cy="73.3952" r="25.7932" stroke="#333333" stroke-width="2"/>
<path d="M89.9471 74.6951C88.2431 74.6951 86.8631 74.0711 85.8071 72.8231C84.7751 71.5511 84.2591 69.8951 84.2591 67.8551C84.2591 65.8151 84.7751 64.1711 85.8071 62.9231C86.8631 61.6511 88.2431 61.0151 89.9471 61.0151C91.6271 61.0151 92.9951 61.6391 94.0511 62.8871C95.1071 64.1351 95.6351 65.7911 95.6351 67.8551C95.6351 69.9191 95.1071 71.5751 94.0511 72.8231C92.9951 74.0711 91.6271 74.6951 89.9471 74.6951ZM105.211 61.1951H107.335L90.1271 86.3951H88.0031L105.211 61.1951ZM89.9471 73.0751C91.1231 73.0751 92.0591 72.6191 92.7551 71.7071C93.4751 70.7711 93.8351 69.4871 93.8351 67.8551C93.8351 66.2231 93.4751 64.9511 92.7551 64.0391C92.0591 63.1031 91.1231 62.6351 89.9471 62.6351C88.7471 62.6351 87.7991 63.1031 87.1031 64.0391C86.4071 64.9751 86.0591 66.2471 86.0591 67.8551C86.0591 69.4631 86.4071 70.7351 87.1031 71.6711C87.7991 72.6071 88.7471 73.0751 89.9471 73.0751ZM105.391 86.5751C103.711 86.5751 102.343 85.9511 101.287 84.7031C100.231 83.4311 99.7031 81.7751 99.7031 79.7351C99.7031 77.6951 100.231 76.0511 101.287 74.8031C102.343 73.5311 103.711 72.8951 105.391 72.8951C107.095 72.8951 108.463 73.5311 109.495 74.8031C110.551 76.0511 111.079 77.6951 111.079 79.7351C111.079 81.7751 110.551 83.4311 109.495 84.7031C108.463 85.9511 107.095 86.5751 105.391 86.5751ZM105.391 84.9551C106.591 84.9551 107.539 84.4871 108.235 83.5511C108.931 82.6151 109.279 81.3431 109.279 79.7351C109.279 78.1271 108.931 76.8551 108.235 75.9191C107.539 74.9831 106.591 74.5151 105.391 74.5151C104.215 74.5151 103.267 74.9831 102.547 75.9191C101.851 76.8311 101.503 78.1031 101.503 79.7351C101.503 81.3671 101.851 82.6511 102.547 83.5871C103.267 84.4991 104.215 84.9551 105.391 84.9551Z" fill="#333333"/>
<circle cx="60.0997" cy="30.4452" r="17.4181" fill="#1062AA"/>
<path d="M66.8454 22.6102L50.1506 27.9603C49.2796 28.2394 49.2094 29.4445 50.0419 29.8229L57.1833 33.069C57.4136 33.1737 57.5956 33.3618 57.6928 33.5953L60.3836 40.0647C60.7338 40.9068 61.9362 40.8789 62.247 40.0215L68.0907 23.9033C68.3738 23.1224 67.6364 22.3567 66.8454 22.6102Z" stroke="white" stroke-width="2"/>
<path d="M57.5381 33.3428L61.3122 29.6399" stroke="white" stroke-width="2" stroke-linecap="round"/>
</svg>
