<svg width="139" height="139" viewBox="0 0 139 139" fill="none" xmlns="http://www.w3.org/2000/svg">
<circle cx="69.3209" cy="69.8499" r="68.9153" fill="#EBF0FF" fill-opacity="0.5"/>
<path d="M107.969 52.7066L54.1031 38.7423C51.6717 38.0888 49.5311 39.053 47.5105 40.2196L23.9163 53.8418C19.5753 56.348 18.557 60.1483 21.0633 64.4893L34.6922 88.0952C35.8561 90.1111 37.2297 92.0091 39.6561 92.6593L93.5664 107.338C98.4069 108.633 103.247 105.839 104.543 101.001L114.458 63.783C115.752 58.9402 112.807 54.003 107.969 52.7066ZM40.88 64.0932C40.3011 66.2537 38.0815 67.5352 35.921 66.9563C33.7604 66.3774 32.4766 64.1591 33.0578 61.9972C33.6354 59.8344 35.8564 58.5552 38.0169 59.1341C40.1788 59.7153 41.4613 61.9313 40.88 64.0932Z" fill="#FFE735"/>
<path d="M39.5319 53.4798C34.2493 52.0623 28.8196 55.1972 27.4059 60.4808C25.9884 65.7634 29.1232 71.1931 34.4082 72.6092C39.6895 74.0243 45.1192 70.8895 46.5366 65.6068C47.9504 60.3232 44.8146 54.8972 39.5319 53.4798ZM40.8837 64.0941C40.3048 66.2547 38.0828 67.5375 35.9223 66.9586C33.7618 66.3797 32.4766 64.1591 33.0578 61.9972C33.634 59.832 35.8587 58.5538 38.0192 59.1327C40.1797 59.7116 41.4636 61.9299 40.8837 64.0941Z" fill="white"/>
<path d="M51.8648 68.7022L58.1395 70.2216L57.6707 72.1576L51.396 70.6382L51.8648 68.7022Z" fill="#333333"/>
<path d="M67.405 62.9829L63.4511 79.311L61.1419 78.7518L64.6043 64.453L60.9188 63.5606L61.4102 61.5312L67.405 62.9829Z" fill="#333333"/>
<path d="M74.0658 71.4853C76.3984 72.0502 78.0017 72.9076 78.8756 74.0575C79.7688 75.1957 80.0309 76.5268 79.6619 78.0508C79.4284 79.0149 78.9843 79.8292 78.3295 80.4938C77.694 81.1466 76.8551 81.5855 75.8129 81.8105C74.79 82.0238 73.6021 81.9666 72.2492 81.639C71.0984 81.3603 70.028 80.92 69.0378 80.3181C68.0515 79.7006 67.2837 78.9961 66.7345 78.2047L68.2537 76.6217C68.6855 77.286 69.2973 77.8869 70.0891 78.4243C70.8846 78.9462 71.7644 79.3239 72.7285 79.5573C73.957 79.8548 74.9678 79.8279 75.7607 79.4767C76.573 79.1136 77.0883 78.4812 77.3067 77.5792C77.5439 76.5995 77.3496 75.7705 76.7236 75.0921C76.1015 74.3982 74.8885 73.8329 73.0846 73.3961L69.3758 72.498L72.3061 64.1697L81.5198 66.4008L81.0284 68.4301L73.7741 66.6735L72.2464 71.0448L74.0658 71.4853Z" fill="#333333"/>
<path d="M85.5647 76.665C84.4295 76.3902 83.6118 75.7559 83.1116 74.7623C82.6114 73.7686 82.5213 72.6109 82.8414 71.2891C83.1615 69.9673 83.7712 68.9791 84.6705 68.3243C85.5699 67.6696 86.5871 67.4797 87.7223 67.7546C88.8575 68.0294 89.6674 68.6618 90.1521 69.6517C90.6561 70.6298 90.7461 71.7875 90.4223 73.1248C90.0985 74.4622 89.4869 75.4582 88.5875 76.113C87.7075 76.7559 86.6999 76.9399 85.5647 76.665ZM97.532 70.2781L99.3281 70.713L84.2244 84.3412L82.4284 83.9063L97.532 70.2781ZM85.8866 75.3355C86.602 75.5087 87.2277 75.3721 87.7638 74.9257C88.3037 74.4638 88.6922 73.743 88.9294 72.7633C89.1667 71.7836 89.149 70.9727 88.8765 70.3305C88.6077 69.6728 88.1157 69.2573 87.4004 69.0841C86.7006 68.9147 86.073 69.059 85.5176 69.5172C84.9777 69.9791 84.591 70.6921 84.3576 71.6563C84.1241 72.6204 84.1417 73.4313 84.4105 74.0891C84.6948 74.7505 85.1868 75.166 85.8866 75.3355ZM94.0341 86.8648C92.8989 86.5899 92.0793 85.9634 91.5753 84.9853C91.0907 83.9955 91.0103 82.8319 91.3341 81.4945C91.658 80.1572 92.2599 79.167 93.1399 78.5241C94.0393 77.8693 95.0565 77.6794 96.1917 77.9543C97.3269 78.2292 98.1446 78.8635 98.6448 79.8571C99.145 80.8507 99.2351 82.0084 98.915 83.3302C98.595 84.652 97.9852 85.6403 97.0859 86.295C96.1865 86.9498 95.1693 87.1397 94.0341 86.8648ZM94.356 85.5352C95.0558 85.7047 95.6756 85.5584 96.2155 85.0965C96.7709 84.6384 97.1654 83.9272 97.3988 82.9631C97.6323 81.999 97.6069 81.1861 97.3226 80.5247C97.0538 79.8669 96.5696 79.4533 95.8698 79.2839C95.1545 79.1107 94.5269 79.255 93.987 79.7169C93.4509 80.1633 93.0642 80.8763 92.827 81.856C92.5897 82.8357 92.6055 83.6544 92.8743 84.3121C93.1468 84.9543 93.6407 85.362 94.356 85.5352Z" fill="#333333"/>
<path d="M37.5939 63.0316C37.5939 63.0316 48.7434 59.2274 50.5503 53.1179C52.9858 44.8834 35.8985 43.7699 37.5939 35.3519C38.9491 28.623 50.5503 23.4751 50.5503 23.4751" stroke="#1062AA" stroke-width="2" stroke-linecap="round" stroke-linejoin="round"/>
</svg>
